<svg xmlns="http://www.w3.org/2000/svg" xmlns:se="http://svg-edit.googlecode.com" xmlns:xlink="http://www.w3.org/1999/xlink" xmlns:dc="http://purl.org/dc/elements/1.1/" xmlns:cc="http://creativecommons.org/ns#" xmlns:rdf="http://www.w3.org/1999/02/22-rdf-syntax-ns#" xmlns:inkscape="http://www.inkscape.org/namespaces/inkscape" width="777" height="480" style="">                                    <title>my vector image</title>                                    <!-- Created with Vector Paint - http://www.vectorpaint.yaks.com/ https://chrome.google.com/webstore/detail/hnbpdiengicdefcjecjbnjnoifekhgdo -->                                    <rect id="backgroundrect" width="100%" height="100%" x="0" y="0" fill="#FFFFFF" stroke="none"/>                                <g class="currentLayer" style=""><title>Layer 1</title><polyline fill="#ffffff" stroke="#ffffff" stroke-width="2" stroke-linejoin="round" stroke-dashoffset="" fill-rule="nonzero" marker-start="" marker-mid="" marker-end="" id="svg_1" points="359.3807172520968,111.61445132491066 358.17589803728384,111.61445132491066 357.57348842987733,111.61445132491066 356.36866921506436,111.61445132491066 355.1638500002514,111.61445132491066 352.75421157062544,111.61445132491066 350.94698274840596,112.21686093231715 349.742163533593,112.81927053972363 348.53734431878,114.62649936194309 346.7301154965606,118.240957006382 343.71806745952813,123.06023386563392 340.1036098150892,129.68673954710528 336.4891521706503,136.31324522857665 332.87469452621133,143.5421605174545 329.26023688177247,152.5783046285518 325.6457792373335,159.80721991742962 322.6337312003011,167.638544813714 319.0192735558622,176.67468892481128 316.60963512623624,184.50601382109562 314.80240630401676,194.14456753959942 313.5975870892038,203.78312125810322 313.5975870892038,213.421674976607 313.5975870892038,224.26504790992377 316.0072255188297,233.90360162842757 320.22409277067516,242.93974573952485 325.04336962992704,250.77107063580922 331.0674657039919,256.7951667098741 337.09156177805676,260.409624354313 343.71806745952813,262.81926278393894 350.34457314099956,263.4216723913454 356.36866921506436,263.4216723913454 361.18794607431624,263.4216723913454 366.0072229335682,261.61444356912597 371.42890940022653,259.2048051395 376.2481862594785,256.19275710246757 380.46505351132384,251.97588985062217 384.6819207631693,247.15661299137028 388.8987880150147,240.5301073098989 392.5132456594536,233.30119202102108 394.92288408907956,226.07227673214322 396.12770330389253,218.8433614432654 396.730112911299,211.01203654698105 397.3325225187055,201.97589243588376 397.3325225187055,194.14456753959942 397.3325225187055,188.12047146553454 396.730112911299,182.09637539146968 394.92288408907956,177.27709853221776 393.11565526686013,171.85541206555936 391.9108360520471,167.638544813714 390.1036072298277,163.42167756186856 388.8987880150147,159.80721991742962 387.69396880020173,156.19276227299073 387.0915591927952,153.18071423595828 385.88673997798224,150.77107580633233 384.6819207631693,147.7590277692999 382.8746919409498,144.74697973226748 381.6698727261368,142.3373413026415 380.46505351132384,139.92770287301556 378.6578246891044,138.1204740507961 377.45300547429144,136.31324522857665 376.2481862594785,134.5060164063572 375.04336704466544,132.69878758413773 374.44095743725904,130.28914915451176 373.236138222446,128.4819203322923 372.03131900763304,127.27710111747932 370.8264997928201,125.46987229525985 369.6216805780071,124.26505308044689 369.01927097060064,122.45782425822743 367.8144517557876,121.25300504341446 366.60963254097464,120.65059543600798 365.4048133261617,120.04818582860149 364.1999941113487,118.84336661378849 362.99517489653573,118.240957006382 361.79035568172276,117.63854739897552 360.5855364669098,117.03613779156903 359.3807172520968,115.83131857675606 357.57348842987733,115.22890896934958 356.36866921506436,114.62649936194309 354.56144039284493,114.0240897545366 353.35662117803196,113.42168014713012 352.151801963219,113.42168014713012 351.5493923558124,113.42168014713012 350.34457314099956,113.42168014713012 349.13975392618653,113.42168014713012 347.93493471137356,113.42168014713012 346.7301154965606,114.0240897545366 345.5252962817476,114.62649936194309 343.71806745952813,115.22890896934958 342.51324824471516,116.43372818416256 340.70601942249573,117.63854739897552 338.29638099286973,120.04818582860149 336.4891521706503,123.06023386563392 334.07951374102436,126.67469151007283 331.66987531139847,131.49396836932473 328.65782727436596,135.71083562117016 326.24818884474007,141.13252208782853 323.23614080770756,145.95179894708045 322.0313215928946,149.56625659151936 320.22409277067516,153.18071423595828 319.0192735558622,157.9999910952102 317.8144543410492,162.81926795446208 316.60963512623624,168.24095442112048 316.60963512623624,172.45782167296588 316.0072255188297,176.67468892481128 316.0072255188297,182.09637539146968 316.0072255188297,187.51806185812805 317.2120447336427,193.54215793219294 319.0192735558622,201.37348282847725 321.4289119854881,208.6023981173551 322.6337312003011,214.02408458401348 324.4409600225205,218.8433614432654 325.6457792373335,222.4578190877043 327.453008059553,224.86745751733025 328.65782727436596,227.27709594695622 331.66987531139847,230.28914398398865 334.6819233484308,234.50601123583405 339.50120020768276,239.3252880950859 344.32047706693464,244.7469745617443 349.13975392618653,248.96384181358977 354.56144039284493,253.18070906543514 359.3807172520968,256.7951667098741 363.59758450394224,259.2048051395 367.8144517557876,261.01203396171945 371.42890940022653,261.61444356912597 374.44095743725904,262.2168531765324 377.45300547429144,262.2168531765324 379.2602342965109,262.2168531765324 382.27228233354333,262.2168531765324 385.28433037057573,261.61444356912597 388.8987880150147,260.409624354313 391.9108360520471,259.2048051395 394.92288408907956,257.99998592468705 396.730112911299,256.7951667098741 398.53734173351853,255.59034749506108 399.7421609483314,253.18070906543514 400.9469801631444,250.1686610284027 402.7542089853639,245.9517937765573 404.56143780758333,241.13251691730542 406.3686666298028,235.10842084324054 407.5734858446158,227.27709594695622 408.77830505942876,217.63854222845242 408.77830505942876,207.39757890254214 408.17589545202225,198.9638443988513 406.9710762372093,191.132519502567 404.56143780758333,183.9036042136891 401.54938977055093,175.4698697099983 398.53734173351853,167.03613520630748 394.92288408907956,159.2048103100232 392.5132456594536,152.5783046285518 390.1036072298277,148.3614373767064 388.2963784076082,144.144570124861 385.88673997798224,141.13252208782853 384.07951115576276,138.1204740507961 382.27228233354333,135.71083562117016 380.46505351132384,133.9036067989507 378.6578246891044,131.49396836932473 375.6457766520719,129.68673954710528 372.6337286150395,127.27710111747932 368.41686136319413,124.86746268785338 364.8024037187552,123.06023386563392 361.18794607431624,121.85541465082096 357.57348842987733,120.65059543600798 355.1638500002514,120.04818582860149 352.75421157062544,120.04818582860149 350.94698274840596,120.04818582860149 348.53734431878,120.04818582860149 346.127705889154,120.65059543600798 343.11565785212167,121.85541465082096 340.70601942249573,123.06023386563392 338.29638099286973,124.26505308044689 335.8867425632438,124.86746268785338 334.6819233484308,126.07228190266635 333.47710413361784,126.67469151007283 332.87469452621133,127.27710111747932 332.27228491880487,128.4819203322923 331.0674657039919,129.68673954710528 329.8626464891789,131.49396836932473 328.65782727436596,133.9036067989507 326.85059845214647,136.91565483598313 325.04336962992704,140.53011248042205 323.83855041511407,144.144570124861 323.23614080770756,147.7590277692999 322.0313215928946,150.77107580633233 321.4289119854881,154.98794305817773 320.82650237808156,159.2048103100232 319.62168316326864,163.42167756186856 319.0192735558622,167.638544813714 319.0192735558622,172.45782167296588 318.41686394845567,177.27709853221776 317.8144543410492,182.69878499887616 317.2120447336427,188.12047146553454 316.60963512623624,193.54215793219294 316.60963512623624,197.75902518403834 316.0072255188297,201.97589243588376 315.40481591142316,205.59035008032268 314.80240630401676,208.6023981173551 314.80240630401676,211.61444615438754 314.1999966966103,214.02408458401348 314.1999966966103,216.43372301363945 314.1999966966103,218.2409518358589 314.1999966966103,220.0481806580784 314.1999966966103,221.85540948029782 313.5975870892038,223.66263830251728 313.5975870892038,224.86745751733025 313.5975870892038,227.27709594695622 313.5975870892038,229.08432476917568 313.5975870892038,230.89155359139514 313.5975870892038,232.09637280620814 313.5975870892038,233.30119202102108 314.1999966966103,235.10842084324054 316.0072255188297,237.51805927286648 319.62168316326864,240.5301073098989 324.4409600225205,244.14456495433782 329.8626464891789,247.15661299137028 334.07951374102436,249.56625142099622 338.29638099286973,251.3734802432157 342.51324824471516,252.57829945802868 345.5252962817476,253.18070906543514 348.53734431878,253.18070906543514 351.5493923558124,253.18070906543514 353.9590307854384,253.18070906543514 356.36866921506436,253.18070906543514 358.7783076446903,253.18070906543514 360.5855364669098,253.18070906543514 362.3927652891292,253.18070906543514 364.1999941113487,252.57829945802868 365.4048133261617,251.97588985062217 367.21204214838116,250.77107063580922 369.01927097060064,250.1686610284027 371.42890940022653,249.56625142099622 373.236138222446,248.36143220618325 375.04336704466544,247.15661299137028 376.85059586688493,245.9517937765573 378.6578246891044,244.7469745617443 379.86264390391744,244.14456495433782 381.0674631187303,242.93974573952485 381.6698727261368,242.3373361321184 382.27228233354333,241.13251691730542 383.4771015483563,239.92769770249245 384.07951115576276,238.72287848767948 385.28433037057573,237.51805927286648 386.4891495853887,236.3132400580535 387.69396880020173,234.50601123583405 388.8987880150147,233.30119202102108 390.1036072298277,231.49396319880162 391.30842644464065,229.68673437658217 392.5132456594536,227.8795055543627 393.7180648742666,226.07227673214322 394.92288408907956,223.0602286951108 395.525293696486,220.0481806580784 396.730112911299,217.03613262104594 397.93493212611196,214.02408458401348 398.53734173351853,211.01203654698105 399.139751340925,208.6023981173551 399.7421609483314,205.59035008032268 400.34457055573796,201.37348282847725 400.34457055573796,197.75902518403834 400.34457055573796,194.14456753959942 400.9469801631444,189.92770028775402 400.9469801631444,186.91565225072156 400.9469801631444,183.9036042136891 400.9469801631444,180.28914656925022 400.9469801631444,176.67468892481128 400.34457055573796,173.66264088777885 400.34457055573796,170.65059285074642 399.7421609483314,167.638544813714 398.53734173351853,164.62649677668153 397.93493212611196,161.01203913224262 396.730112911299,157.9999910952102 396.12770330389253,154.98794305817773 395.525293696486,153.18071423595828 394.92288408907956,151.37348541373882 394.320474481673,149.56625659151936 393.7180648742666,148.3614373767064 393.11565526686013,146.55420855448693 392.5132456594536,144.74697973226748 391.9108360520471,143.5421605174545 391.30842644464065,142.3373413026415 390.70601683723413,141.13252208782853 390.70601683723413,139.92770287301556 390.1036072298277,138.1204740507961 389.50119762242116,136.91565483598313 388.8987880150147,136.31324522857665 388.2963784076082,135.71083562117016 387.69396880020173,134.5060164063572 387.0915591927952,133.9036067989507 386.4891495853887,132.69878758413773 385.88673997798224,132.09637797673125 385.28433037057573,131.49396836932473 384.6819207631693,130.89155876191825 384.07951115576276,130.28914915451176 383.4771015483563,129.68673954710528 383.4771015483563,129.68673954710528 382.8746919409498,129.0843299396988 382.8746919409498,129.0843299396988 382.27228233354333,128.4819203322923 381.6698727261368,128.4819203322923 381.6698727261368,127.8795107248858 381.0674631187303,127.27710111747932 380.46505351132384,127.27710111747932 380.46505351132384,126.67469151007283 379.86264390391744,126.67469151007283 379.86264390391744,126.07228190266635 379.2602342965109,126.07228190266635 379.2602342965109,125.46987229525985 378.6578246891044,125.46987229525985 378.6578246891044,124.86746268785338 378.0554150816979,124.86746268785338 378.0554150816979,124.26505308044689 377.45300547429144,123.6626434730404 377.45300547429144,123.6626434730404 376.85059586688493,123.06023386563392 376.85059586688493,122.45782425822743 376.2481862594785,121.85541465082096 376.2481862594785,121.85541465082096 375.6457766520719,121.25300504341446 375.04336704466544,120.65059543600798 375.04336704466544,120.65059543600798 374.44095743725904,120.04818582860149 373.8385478298525,120.04818582860149 373.8385478298525,119.44577622119498 373.236138222446,119.44577622119498 373.236138222446,119.44577622119498 372.6337286150395,118.84336661378849 372.6337286150395,118.84336661378849 372.03131900763304,118.240957006382 372.03131900763304,118.240957006382 371.42890940022653,117.63854739897552 371.42890940022653,117.63854739897552 370.8264997928201,117.63854739897552 370.8264997928201,117.03613779156903 370.2240901854135,117.03613779156903 370.2240901854135,116.43372818416256 369.6216805780071,116.43372818416256 369.6216805780071,115.83131857675606 369.6216805780071,115.83131857675606 369.01927097060064,115.22890896934958 369.01927097060064,115.22890896934958 369.01927097060064,115.22890896934958 368.41686136319413,114.62649936194309 368.41686136319413,114.62649936194309 367.8144517557876,114.0240897545366 367.8144517557876,114.0240897545366 367.8144517557876,114.0240897545366 367.21204214838116,113.42168014713012 367.21204214838116,113.42168014713012 367.21204214838116,113.42168014713012 367.21204214838116,112.81927053972363 366.60963254097464,112.81927053972363 366.60963254097464,112.81927053972363 366.60963254097464,112.81927053972363 366.0072229335682,112.81927053972363 366.0072229335682,112.81927053972363 366.0072229335682,112.21686093231715 366.0072229335682,112.21686093231715 365.4048133261617,112.21686093231715 365.4048133261617,112.21686093231715 365.4048133261617,112.21686093231715 364.8024037187552,112.21686093231715 364.8024037187552,111.61445132491066 364.1999941113487,111.61445132491066 364.1999941113487,111.61445132491066 364.1999941113487,111.61445132491066 363.59758450394224,111.61445132491066 363.59758450394224,111.61445132491066 362.99517489653573,111.01204171750418 362.99517489653573,111.01204171750418 362.99517489653573,111.01204171750418 362.3927652891292,111.01204171750418 362.3927652891292,111.01204171750418 362.3927652891292,111.01204171750418 361.79035568172276,111.01204171750418 361.79035568172276,111.01204171750418 361.79035568172276,111.01204171750418 361.18794607431624,111.01204171750418 361.18794607431624,111.01204171750418 361.18794607431624,111.01204171750418 361.18794607431624,111.01204171750418 360.5855364669098,111.01204171750418 360.5855364669098,111.01204171750418 360.5855364669098,111.01204171750418 360.5855364669098,111.01204171750418 359.9831268595033,111.01204171750418 359.9831268595033,111.01204171750418 359.9831268595033,111.01204171750418 359.9831268595033,111.01204171750418 359.3807172520968,111.01204171750418 359.3807172520968,111.01204171750418 359.3807172520968,111.01204171750418 359.3807172520968,111.01204171750418 358.7783076446903,111.01204171750418 358.7783076446903,111.01204171750418 358.7783076446903,111.01204171750418 358.7783076446903,111.01204171750418 358.7783076446903,111.01204171750418 358.17589803728384,111.01204171750418 358.17589803728384,111.01204171750418 358.17589803728384,111.61445132491066 358.17589803728384,111.61445132491066 358.17589803728384,111.61445132491066 357.57348842987733,111.61445132491066 357.57348842987733,111.61445132491066 357.57348842987733,111.61445132491066 357.57348842987733,111.61445132491066 356.9710788224708,111.61445132491066 356.9710788224708,111.61445132491066 356.9710788224708,111.61445132491066 356.9710788224708,112.21686093231715 356.9710788224708,112.21686093231715 356.36866921506436,112.21686093231715 356.36866921506436,112.21686093231715 " style="color: rgb(0, 0, 0);" class="" fill-opacity="1" stroke-opacity="1"/></g></svg>